<?xml version="1.0" standalone="no"?>
<!DOCTYPE svg PUBLIC "-//W3C//DTD SVG 20010904//EN"
 "http://www.w3.org/TR/2001/REC-SVG-20010904/DTD/svg10.dtd">
<svg version="1.0" xmlns="http://www.w3.org/2000/svg"
 width="3000.000000pt" height="3000.000000pt" viewBox="0 0 3000.000000 3000.000000"
 preserveAspectRatio="xMidYMid meet">
<metadata>
Created by potrace 1.11, written by Peter Selinger 2001-2013
</metadata>
<g transform="translate(0.000000,3000.000000) scale(0.100000,-0.100000)"
fill="#000000" stroke="none">
<path d="M6209 24846 c-2 -2 -52 -7 -110 -10 -58 -4 -116 -8 -130 -11 -13 -2
-55 -6 -92 -10 -37 -3 -78 -8 -90 -11 -12 -2 -42 -6 -67 -9 -53 -7 -76 -10
-190 -31 -47 -9 -96 -18 -110 -21 -120 -21 -447 -109 -625 -168 -255 -85 -694
-277 -871 -382 -27 -16 -83 -49 -124 -73 -78 -46 -321 -200 -330 -210 -3 -3
-54 -41 -115 -84 -93 -67 -273 -206 -311 -241 -6 -5 -37 -32 -69 -60 -142
-122 -434 -406 -545 -531 -220 -248 -450 -534 -580 -724 -13 -19 -27 -37 -30
-40 -11 -11 -201 -301 -274 -420 -42 -69 -80 -132 -85 -140 -6 -8 -38 -64 -73
-125 -189 -329 -413 -788 -553 -1135 -26 -63 -53 -128 -60 -145 -7 -16 -25
-61 -39 -100 -14 -38 -31 -83 -37 -100 -7 -16 -13 -34 -15 -40 -1 -5 -10 -30
-19 -55 -32 -86 -127 -365 -131 -385 -2 -12 -13 -48 -25 -80 -11 -33 -23 -70
-25 -83 -3 -13 -11 -42 -19 -65 -52 -153 -185 -694 -234 -952 -11 -60 -23
-121 -26 -135 -3 -14 -8 -41 -11 -60 -3 -19 -7 -46 -10 -60 -36 -208 -46 -273
-64 -405 -6 -44 -13 -91 -15 -105 -2 -14 -7 -50 -10 -80 -4 -30 -9 -67 -10
-81 -2 -15 -7 -55 -10 -90 -4 -35 -8 -77 -11 -94 -2 -16 -6 -64 -9 -105 -4
-41 -8 -88 -10 -105 -3 -27 -7 -75 -20 -260 -27 -387 -27 -1221 0 -1605 3 -36
7 -99 10 -140 13 -180 40 -479 50 -548 3 -18 7 -54 10 -80 3 -26 14 -112 25
-192 11 -80 22 -158 24 -175 3 -16 7 -43 10 -60 2 -16 14 -88 26 -160 12 -71
23 -141 25 -155 6 -32 73 -378 79 -405 2 -11 16 -74 31 -140 14 -66 32 -145
40 -175 8 -30 16 -66 19 -80 20 -109 168 -639 246 -885 91 -286 262 -771 300
-850 5 -11 27 -65 49 -120 173 -439 461 -1038 721 -1495 113 -200 269 -457
359 -593 15 -23 49 -73 74 -112 242 -369 598 -837 885 -1163 28 -31 59 -66 69
-78 137 -158 525 -552 713 -725 102 -94 216 -193 314 -274 27 -22 54 -44 60
-50 17 -15 119 -98 147 -118 13 -10 75 -56 137 -102 603 -449 1310 -804 1957
-983 39 -11 90 -26 115 -33 50 -14 55 -15 90 -22 14 -3 52 -12 85 -20 88 -23
294 -63 375 -73 19 -2 60 -8 90 -14 51 -8 159 -21 286 -35 139 -14 294 -20
559 -20 396 0 490 7 606 44 52 17 110 33 129 36 275 44 906 225 1095 315 11 5
47 20 80 33 154 62 456 208 583 283 40 24 76 44 78 44 9 0 340 213 384 247 8
6 78 58 155 116 267 200 520 431 781 712 377 407 748 934 1063 1510 76 138
254 493 314 625 13 30 38 84 54 120 72 156 187 439 257 630 32 85 61 164 66
175 29 67 227 696 245 778 2 12 27 110 54 217 28 107 52 206 55 220 2 14 15
75 29 135 22 96 42 193 62 300 21 111 55 307 60 345 3 25 8 52 10 60 2 8 6 38
10 65 3 28 10 77 15 110 5 33 12 85 15 115 3 30 7 66 10 80 5 30 13 103 20
185 3 33 8 76 10 95 8 59 22 232 30 370 3 52 8 115 10 140 23 245 23 1143 0
1490 -2 36 -7 103 -10 150 -3 47 -7 114 -10 150 -3 36 -7 94 -10 130 -4 61
-10 121 -20 230 -3 25 -7 72 -10 105 -3 33 -8 71 -10 85 -2 14 -7 53 -10 87
-3 34 -8 71 -10 82 -2 11 -6 48 -10 83 -3 35 -8 74 -10 88 -3 14 -7 43 -10 65
-2 22 -16 117 -30 210 -39 251 -43 281 -50 315 -6 28 -11 60 -26 145 -5 33
-14 80 -19 105 -6 25 -24 113 -41 195 -16 83 -32 161 -35 175 -47 230 -179
732 -270 1030 -103 334 -297 876 -389 1085 -7 17 -30 71 -51 120 -118 283
-337 737 -474 985 -29 52 -68 124 -88 160 -19 36 -72 126 -116 200 -44 74 -86
144 -92 155 -30 53 -198 317 -264 415 -246 364 -600 826 -795 1036 -11 12 -54
59 -95 105 -80 91 -486 499 -585 589 -34 30 -92 82 -130 115 -39 33 -72 62
-75 65 -13 15 -198 166 -315 256 -726 559 -1471 949 -2245 1174 -144 41 -393
103 -470 116 -14 3 -36 7 -50 9 -80 16 -299 51 -380 60 -19 2 -73 7 -120 10
-47 4 -96 9 -110 12 -29 6 -635 14 -641 9z m596 -1130 c130 -10 258 -23 305
-31 8 -1 35 -6 60 -10 25 -3 56 -8 70 -11 23 -3 91 -16 150 -29 14 -2 50 -10
80 -16 149 -30 410 -108 610 -182 621 -229 1208 -582 1819 -1092 90 -75 170
-142 177 -148 6 -7 54 -50 105 -97 161 -146 410 -398 599 -606 69 -76 248
-291 349 -419 121 -155 138 -176 228 -300 79 -109 367 -547 446 -680 234 -395
451 -810 617 -1185 21 -47 47 -105 58 -130 36 -82 100 -234 132 -315 17 -44
38 -93 45 -110 47 -105 220 -580 298 -820 106 -325 237 -790 272 -965 2 -8 11
-44 20 -80 9 -36 19 -76 22 -90 2 -14 13 -65 24 -115 11 -49 22 -101 25 -115
3 -14 11 -56 19 -95 8 -38 17 -83 20 -100 44 -243 57 -319 74 -425 21 -134 24
-153 41 -275 5 -44 12 -91 15 -105 2 -14 6 -52 10 -84 3 -33 8 -73 10 -90 2
-17 7 -58 10 -91 3 -33 8 -69 10 -80 2 -11 7 -57 10 -102 3 -46 8 -91 9 -100
2 -10 7 -64 10 -120 4 -56 9 -111 11 -123 2 -12 7 -76 10 -143 3 -67 7 -140 9
-163 25 -255 25 -933 1 -1229 -2 -27 -7 -90 -10 -140 -4 -49 -8 -106 -10 -125
-2 -19 -6 -75 -10 -125 -4 -49 -8 -97 -10 -105 -2 -8 -6 -49 -10 -90 -4 -41
-8 -91 -10 -110 -2 -19 -11 -91 -19 -160 -9 -69 -19 -143 -22 -165 -2 -22 -7
-51 -9 -65 -2 -14 -7 -43 -10 -65 -7 -50 -53 -331 -60 -365 -3 -14 -7 -37 -10
-52 -3 -15 -15 -74 -26 -130 -11 -57 -23 -114 -25 -128 -3 -14 -9 -41 -14 -60
-5 -19 -12 -48 -14 -65 -5 -28 -80 -333 -111 -450 -40 -151 -183 -607 -212
-675 -3 -8 -7 -20 -8 -26 -5 -22 -159 -411 -177 -447 -10 -20 -16 -37 -12 -37
4 0 2 -6 -4 -13 -5 -6 -21 -39 -35 -72 -55 -130 -215 -459 -290 -595 -186
-339 -363 -623 -544 -875 -23 -33 -51 -71 -60 -84 -61 -85 -206 -265 -312
-389 -544 -633 -1200 -1122 -1897 -1415 -116 -49 -461 -170 -518 -181 -30 -7
-143 -35 -191 -47 -22 -6 -51 -13 -65 -15 -14 -2 -36 -7 -50 -10 -14 -3 -35
-8 -48 -10 -12 -2 -49 -9 -82 -14 -87 -16 -100 -18 -155 -24 -27 -3 -99 -10
-160 -17 -179 -20 -720 -16 -845 5 -14 3 -47 7 -75 10 -118 12 -272 39 -441
76 -103 22 -106 23 -164 39 -19 5 -62 17 -95 25 -88 24 -247 75 -267 86 -10 6
-23 10 -29 10 -15 0 -316 120 -410 163 -369 171 -653 337 -1024 598 -117 83
-462 359 -541 434 -6 5 -49 44 -95 85 -133 119 -495 475 -574 564 -45 51 -181
202 -185 206 -26 23 -301 361 -388 475 -194 257 -428 601 -559 823 -249 422
-443 796 -604 1167 -22 50 -44 99 -49 110 -19 42 -80 193 -177 440 -8 22 -19
49 -24 60 -49 122 -227 661 -293 890 -82 286 -221 837 -251 995 -3 14 -7 34
-9 45 -8 38 -75 370 -81 400 -6 34 -64 377 -70 415 -10 68 -42 292 -51 360 -3
25 -7 59 -9 75 -2 17 -7 53 -10 80 -3 28 -8 68 -10 90 -7 56 -13 122 -21 206
-3 40 -8 81 -10 93 -2 11 -6 61 -9 111 -3 49 -8 122 -11 160 -15 170 -28 563
-28 845 1 217 8 507 19 680 11 199 16 268 20 290 2 14 7 61 10 105 3 44 8 91
10 105 2 14 6 57 10 95 3 39 8 77 10 85 2 8 6 40 10 70 6 61 13 120 19 159 3
14 10 62 16 106 6 44 13 91 16 105 2 14 7 41 10 60 20 127 50 288 80 430 20
91 38 178 40 193 11 60 125 502 169 653 84 289 292 891 359 1039 8 17 35 81
60 143 204 496 486 1013 831 1519 33 48 62 90 65 93 3 3 30 39 60 80 179 247
370 471 595 695 192 192 238 235 430 394 118 98 463 336 590 407 355 198 638
320 950 410 71 21 236 65 260 70 11 2 54 11 95 19 41 8 86 17 99 19 28 6 161
25 288 40 23 3 91 8 150 12 59 3 109 7 110 8 5 5 361 -2 448 -8z"/>
<path d="M9008 16326 c-1 -2 -57 -6 -123 -10 -134 -6 -167 -11 -310 -41 -56
-11 -248 -71 -292 -91 -17 -8 -34 -14 -38 -14 -3 0 -27 -9 -53 -21 -313 -138
-536 -292 -777 -533 -291 -292 -504 -619 -725 -1111 -151 -337 -299 -823 -365
-1200 -13 -73 -35 -208 -40 -250 -4 -27 -8 -61 -10 -75 -2 -14 -6 -61 -10
-105 -4 -44 -9 -88 -11 -98 -23 -126 -23 -895 1 -1057 2 -14 7 -56 10 -95 18
-189 25 -248 35 -300 5 -27 11 -70 15 -95 3 -25 7 -55 9 -66 2 -12 7 -39 11
-60 3 -22 8 -52 10 -69 3 -16 10 -50 15 -75 5 -25 12 -62 15 -84 3 -21 7 -41
9 -45 2 -3 7 -22 10 -41 3 -19 8 -46 11 -60 4 -14 9 -38 11 -55 7 -36 91 -377
104 -420 5 -16 28 -91 51 -165 229 -756 567 -1395 1013 -1920 97 -113 87 -102
211 -229 144 -148 251 -247 380 -351 44 -35 82 -67 85 -70 12 -15 200 -145
284 -197 208 -129 469 -244 686 -301 124 -34 126 -34 275 -58 142 -24 510 -24
620 -1 11 3 40 8 65 12 89 13 304 76 413 121 297 121 537 283 777 524 147 146
175 178 272 308 324 430 581 939 738 1462 54 180 125 488 145 630 3 25 8 56
10 70 6 37 14 100 19 140 2 19 7 58 11 87 7 55 10 100 22 278 13 213 7 771
-12 929 -2 17 -6 67 -10 111 -3 44 -8 94 -10 110 -2 17 -7 55 -10 85 -6 62 -9
86 -25 203 -7 45 -14 98 -16 117 -11 86 -62 371 -67 377 -4 3 -12 1 -19 -4 -7
-6 -98 -54 -203 -108 -277 -143 -357 -185 -379 -201 -11 -8 -28 -14 -37 -14
-10 0 -19 -3 -21 -8 -1 -4 -37 -25 -78 -46 -41 -21 -124 -64 -185 -96 -60 -31
-173 -90 -250 -130 -77 -40 -189 -99 -250 -130 -147 -77 -323 -168 -475 -248
-69 -35 -170 -88 -225 -117 -55 -29 -163 -85 -240 -125 -288 -149 -392 -204
-480 -250 -215 -113 -344 -180 -349 -180 -4 0 73 193 491 1225 91 226 179 444
195 485 16 41 36 89 43 105 13 28 288 711 461 1145 41 102 78 194 83 205 6 11
40 97 76 190 37 94 73 184 80 200 7 17 29 71 48 120 20 50 41 104 48 120 7 17
13 32 14 35 1 3 7 19 14 35 145 356 172 442 173 544 2 127 -16 160 -177 324
-127 130 -233 214 -395 312 -95 59 -302 165 -366 189 -378 141 -611 195 -904
211 -58 4 -110 8 -117 10 -6 2 -13 2 -15 1z"/>
<path d="M23407 24814 c-1 -1 -76 -5 -167 -8 -91 -4 -183 -9 -205 -11 -118
-12 -157 -17 -235 -26 -831 -101 -1721 -445 -2495 -964 -66 -44 -124 -82 -129
-84 -5 -2 -16 -10 -25 -17 -9 -7 -72 -54 -141 -105 -106 -78 -303 -232 -320
-249 -3 -3 -27 -24 -55 -45 -27 -22 -54 -45 -60 -51 -5 -6 -55 -51 -110 -100
-265 -234 -582 -559 -815 -834 -30 -36 -58 -67 -61 -70 -3 -3 -47 -57 -97
-120 -51 -63 -101 -124 -110 -136 -10 -11 -49 -63 -87 -115 -38 -52 -72 -96
-76 -99 -31 -26 -343 -486 -489 -721 -94 -150 -330 -553 -330 -563 0 -2 -29
-55 -63 -117 -86 -154 -299 -587 -385 -784 -22 -49 -49 -110 -60 -135 -12 -25
-37 -85 -57 -135 -20 -49 -40 -99 -45 -110 -60 -127 -316 -837 -355 -985 -3
-8 -21 -69 -40 -135 -70 -233 -87 -292 -140 -500 -49 -191 -126 -526 -139
-600 -3 -16 -19 -97 -35 -180 -17 -82 -32 -163 -35 -180 -2 -16 -14 -88 -26
-160 -12 -71 -23 -141 -25 -155 -2 -14 -6 -41 -9 -60 -4 -19 -8 -48 -10 -65
-5 -43 -25 -193 -32 -240 -3 -22 -7 -56 -9 -75 -2 -19 -6 -53 -9 -75 -3 -22
-8 -69 -11 -105 -4 -36 -8 -81 -10 -100 -7 -55 -14 -129 -20 -205 -3 -38 -7
-92 -10 -120 -8 -91 -15 -199 -20 -290 -2 -49 -8 -146 -12 -215 -15 -282 -8
-1304 12 -1555 2 -27 7 -93 10 -145 7 -100 10 -141 20 -255 9 -102 15 -165 20
-205 2 -19 7 -60 10 -90 3 -30 12 -107 21 -170 8 -63 17 -133 20 -155 2 -22 7
-51 10 -65 2 -14 6 -41 8 -60 5 -42 13 -89 31 -195 8 -44 17 -96 20 -115 4
-29 69 -358 80 -410 2 -8 11 -48 19 -87 55 -256 166 -662 267 -973 52 -161
183 -528 209 -585 5 -11 30 -71 55 -134 25 -62 54 -132 64 -155 10 -22 33 -74
51 -115 78 -180 246 -521 334 -680 25 -46 46 -85 46 -87 0 -4 175 -308 213
-369 175 -283 427 -650 549 -800 9 -11 49 -60 89 -110 40 -49 89 -108 108
-130 20 -23 63 -72 96 -110 33 -39 143 -153 245 -255 161 -162 218 -215 340
-320 14 -12 35 -30 48 -41 30 -26 211 -169 243 -191 13 -10 60 -44 104 -76
297 -214 679 -426 1036 -576 246 -103 569 -208 804 -263 33 -7 69 -16 80 -18
44 -11 307 -55 362 -60 32 -3 69 -8 82 -10 106 -18 444 -38 636 -38 142 0 401
10 446 18 22 4 50 7 174 20 28 3 61 7 75 10 14 3 43 7 65 10 32 5 281 55 345
70 8 2 38 8 65 15 228 51 677 208 933 326 41 19 75 34 78 34 8 0 367 179 424
211 30 17 83 46 117 65 342 184 820 521 1183 833 265 227 646 606 841 836 19
22 39 45 45 50 57 52 394 480 563 715 61 85 115 160 121 167 40 48 405 617
479 745 80 139 153 265 161 278 5 8 22 40 39 70 16 30 50 93 76 140 107 197
352 699 430 880 18 41 41 95 52 120 11 25 33 74 48 110 15 36 33 79 41 95 42
96 232 599 253 668 5 18 35 106 66 197 75 220 159 496 216 708 10 39 28 107
40 150 62 230 194 827 224 1012 3 19 12 71 20 115 8 44 17 98 21 120 3 22 8
54 10 70 6 35 12 71 19 118 2 17 6 48 9 67 3 19 8 55 11 80 4 25 8 56 10 70 2
14 6 50 10 80 4 30 8 66 10 80 4 27 12 96 20 183 3 28 8 68 10 87 2 19 7 71
11 115 4 44 8 94 10 110 2 17 6 73 9 125 4 52 8 120 10 150 27 400 27 1293 0
1605 -3 28 -7 88 -10 135 -3 47 -7 105 -10 130 -2 25 -7 77 -10 116 -3 40 -8
88 -10 108 -3 20 -7 60 -10 89 -6 56 -11 96 -20 167 -6 45 -8 60 -20 160 -3
30 -8 62 -10 70 -2 8 -7 35 -10 60 -3 25 -8 57 -11 71 -2 15 -7 47 -10 70 -3
24 -7 53 -9 64 -2 11 -14 83 -29 160 -14 77 -27 151 -30 165 -7 44 -66 323
-82 389 -15 63 -19 78 -29 122 -2 11 -7 29 -10 39 -3 10 -7 27 -9 37 -15 73
-121 456 -163 588 -233 729 -490 1326 -833 1930 -269 475 -653 1006 -1009
1394 -165 181 -315 329 -496 491 -52 47 -219 181 -321 257 -81 61 -396 274
-424 286 -8 4 -33 18 -55 32 -359 221 -895 450 -1349 576 -132 37 -390 98
-481 114 -22 4 -50 9 -62 11 -13 2 -35 6 -50 9 -16 3 -46 7 -68 10 -22 3 -50
7 -62 9 -19 4 -50 9 -143 21 -14 2 -61 7 -105 10 -44 4 -96 9 -115 11 -62 6
-498 22 -503 18z m358 -1118 c114 -6 138 -8 245 -20 104 -12 234 -31 335 -51
312 -60 668 -173 965 -307 101 -45 342 -168 372 -189 14 -11 28 -19 31 -19 9
0 138 -80 267 -165 300 -199 569 -421 845 -701 174 -176 199 -203 329 -354 17
-20 124 -152 220 -271 108 -133 359 -503 488 -719 201 -335 401 -730 558
-1100 32 -74 70 -166 84 -205 15 -38 31 -79 36 -90 4 -11 18 -47 30 -80 12
-33 28 -73 35 -90 28 -65 169 -507 215 -676 87 -312 169 -667 226 -974 9 -48
40 -240 48 -295 2 -19 7 -48 10 -65 11 -63 42 -306 51 -400 3 -33 8 -73 10
-90 2 -16 7 -66 10 -110 3 -44 8 -98 10 -120 4 -37 14 -177 20 -270 23 -354
23 -1175 0 -1410 -2 -22 -7 -87 -10 -145 -3 -58 -8 -121 -10 -140 -2 -19 -7
-71 -10 -115 -3 -44 -8 -91 -10 -105 -2 -14 -7 -59 -10 -100 -4 -41 -8 -82
-10 -90 -2 -8 -6 -46 -10 -85 -3 -38 -8 -81 -10 -95 -2 -14 -7 -43 -10 -65 -7
-56 -33 -242 -40 -290 -16 -108 -79 -461 -100 -565 -3 -14 -7 -35 -9 -46 -20
-103 -87 -399 -142 -624 -29 -122 -110 -416 -135 -495 -11 -33 -21 -69 -24
-80 -9 -41 -78 -257 -151 -470 -41 -121 -76 -224 -78 -230 -2 -5 -6 -17 -9
-25 -4 -8 -27 -71 -52 -139 -72 -196 -213 -542 -275 -676 -10 -22 -25 -56 -33
-75 -8 -19 -51 -111 -95 -205 -348 -736 -736 -1373 -1224 -2010 -32 -42 -258
-318 -287 -350 -20 -23 -63 -72 -96 -110 -168 -193 -532 -555 -675 -671 -19
-16 -44 -37 -55 -48 -11 -10 -83 -69 -160 -131 -597 -479 -1248 -830 -1960
-1053 -124 -39 -380 -109 -434 -118 -14 -3 -57 -11 -96 -19 -86 -16 -144 -27
-170 -30 -11 -2 -54 -8 -95 -14 -74 -10 -102 -14 -250 -28 -158 -15 -713 -7
-819 12 -9 1 -43 6 -76 9 -265 31 -639 118 -905 211 -517 181 -1012 457 -1450
808 -171 137 -277 233 -465 422 -136 136 -200 206 -378 415 -192 225 -570 774
-732 1065 -221 395 -367 701 -512 1070 -154 393 -289 820 -378 1200 -14 61
-32 137 -40 170 -13 54 -29 128 -41 195 -2 14 -10 50 -16 80 -6 30 -12 62 -13
70 -1 8 -7 42 -13 75 -7 33 -14 78 -18 100 -3 22 -7 45 -8 50 -3 9 -12 75 -21
140 -3 17 -6 39 -9 50 -2 11 -7 43 -10 70 -6 51 -12 93 -20 155 -3 19 -8 62
-12 95 -3 33 -8 71 -9 85 -2 14 -6 57 -9 95 -4 39 -9 84 -11 100 -2 17 -7 71
-10 120 -4 50 -9 106 -10 125 -3 31 -11 138 -20 300 -24 392 -24 1212 0 1500
2 25 6 92 10 150 4 58 8 130 10 160 2 30 6 78 9 105 3 28 8 77 11 110 9 94 20
192 41 355 8 63 17 133 19 155 3 22 8 58 12 80 3 22 7 49 9 60 1 11 9 65 18
120 9 55 19 114 22 130 2 17 9 53 14 80 17 87 41 214 46 243 3 15 21 101 40
192 20 91 37 172 39 180 15 70 107 423 152 580 144 507 358 1111 537 1512 52
117 59 133 61 143 4 15 64 142 202 425 106 217 189 378 311 600 59 107 244
424 287 490 12 19 64 103 116 185 51 83 96 152 99 155 3 3 10 13 15 22 9 15
108 161 175 257 109 157 443 585 500 641 3 3 30 34 60 70 199 234 587 622 815
815 32 28 75 64 94 81 129 110 371 293 551 416 649 441 1351 738 2020 852 156
27 218 37 276 42 38 3 80 8 94 10 14 2 81 7 150 10 69 3 126 7 127 8 4 3 245
-2 358 -8z"/>
<path d="M24938 16295 c-2 -2 -43 -5 -93 -8 -104 -7 -155 -14 -290 -41 -299
-59 -653 -199 -910 -361 -409 -256 -746 -587 -1102 -1082 -99 -139 -320 -484
-344 -536 -5 -12 -21 -42 -35 -67 -15 -25 -64 -119 -109 -210 -76 -150 -100
-201 -141 -297 -8 -18 -20 -48 -28 -65 -30 -71 -66 -162 -66 -170 0 -4 -9 -27
-19 -51 -55 -123 -211 -640 -237 -787 -2 -14 -11 -54 -19 -90 -14 -61 -47
-241 -60 -320 -3 -19 -7 -46 -10 -60 -3 -14 -7 -45 -10 -69 -3 -23 -7 -55 -9
-70 -3 -14 -7 -51 -11 -82 -3 -31 -7 -65 -9 -75 -2 -11 -7 -57 -11 -104 -3
-47 -8 -101 -10 -120 -26 -281 -26 -1015 0 -1230 2 -19 7 -69 10 -110 6 -74 7
-85 19 -165 4 -22 8 -58 11 -80 2 -22 7 -51 9 -65 3 -14 8 -45 11 -70 4 -25
20 -112 36 -195 103 -515 285 -996 534 -1413 28 -46 54 -92 60 -103 5 -10 13
-19 17 -19 5 0 8 -5 8 -10 0 -8 89 -143 121 -184 5 -6 40 -51 79 -101 147
-189 339 -379 513 -510 95 -71 203 -145 212 -145 4 0 19 -8 33 -19 103 -73
443 -213 602 -247 74 -16 244 -43 305 -49 80 -8 335 -9 380 -1 17 2 53 7 80
11 224 28 433 87 655 185 286 126 528 288 870 585 66 57 326 320 380 385 30
36 58 67 61 70 15 12 141 174 210 270 242 332 441 700 609 1120 53 133 175
480 185 526 2 10 17 64 33 119 26 88 39 133 48 170 1 6 13 55 27 110 22 85 87
383 103 465 2 14 7 36 9 50 3 14 8 41 11 60 3 19 9 53 14 75 5 22 12 63 15 90
4 28 13 86 20 130 8 44 17 103 21 130 3 28 7 55 8 60 1 13 -17 11 -129 -9 -49
-9 -101 -18 -115 -20 -14 -3 -41 -7 -60 -10 -19 -3 -60 -10 -90 -16 -30 -6
-71 -13 -90 -16 -19 -2 -55 -9 -80 -14 -25 -5 -88 -17 -140 -25 -102 -17 -128
-22 -205 -36 -27 -4 -115 -20 -195 -33 -80 -14 -156 -28 -170 -30 -29 -6 -239
-42 -290 -51 -19 -3 -96 -17 -170 -30 -74 -13 -151 -27 -170 -30 -73 -13 -196
-35 -216 -39 -12 -2 -39 -7 -60 -10 -32 -5 -187 -32 -289 -50 -11 -2 -36 -7
-55 -10 -19 -3 -134 -24 -255 -45 -121 -22 -238 -42 -260 -45 -22 -3 -62 -11
-90 -16 -54 -10 -62 -12 -205 -36 -52 -9 -115 -20 -140 -25 -91 -16 -90 -12
25 117 17 19 48 57 110 134 33 41 62 77 65 80 3 3 32 39 65 80 33 41 67 82 75
90 8 9 40 47 70 85 30 37 72 89 94 114 54 65 52 62 251 306 99 121 187 229
197 240 9 11 53 65 98 120 46 55 96 115 111 134 16 19 44 53 62 75 77 95 371
453 391 476 11 14 37 45 56 70 19 24 45 56 57 70 13 14 48 57 79 95 67 84 114
141 144 175 12 14 34 41 49 60 14 19 28 37 31 40 5 5 79 95 107 130 22 28 305
375 322 395 9 11 58 72 110 135 51 63 101 125 111 137 137 162 217 300 227
391 8 75 -55 252 -139 390 -21 34 -38 67 -38 72 0 6 -4 10 -10 10 -5 0 -10 5
-10 10 0 6 -4 16 -10 23 -5 7 -42 54 -81 105 -397 522 -1168 952 -1789 998
-41 3 -92 6 -112 8 -21 2 -39 2 -40 1z"/>
</g>
</svg>
