<?xml version="1.0" encoding="UTF-8" standalone="no"?>
<!-- Created with Inkscape (http://www.inkscape.org/) -->

<svg
   xmlns:dc="http://purl.org/dc/elements/1.1/"
   xmlns:cc="http://creativecommons.org/ns#"
   xmlns:rdf="http://www.w3.org/1999/02/22-rdf-syntax-ns#"
   xmlns:svg="http://www.w3.org/2000/svg"
   xmlns="http://www.w3.org/2000/svg"
   xmlns:sodipodi="http://sodipodi.sourceforge.net/DTD/sodipodi-0.dtd"
   xmlns:inkscape="http://www.inkscape.org/namespaces/inkscape"
   id="svg3721"
   version="1.1"
   inkscape:version="0.48.4 r9939"
   width="500.00085"
   height="90.397881"
   xml:space="preserve"
   sodipodi:docname="Logos For Use.ai"><metadata
     id="metadata3727"><rdf:RDF><cc:Work
         rdf:about=""><dc:format>image/svg+xml</dc:format><dc:type
           rdf:resource="http://purl.org/dc/dcmitype/StillImage" /><dc:title></dc:title></cc:Work></rdf:RDF></metadata><defs
     id="defs3725"><clipPath
       clipPathUnits="userSpaceOnUse"
       id="clipPath3735"><path
         d="M 0,500 500,500 500,0 0,0 0,500 z"
         id="path3737"
         inkscape:connector-curvature="0" /></clipPath></defs><sodipodi:namedview
     pagecolor="#ffffff"
     bordercolor="#666666"
     borderopacity="1"
     objecttolerance="10"
     gridtolerance="10"
     guidetolerance="10"
     inkscape:pageopacity="0"
     inkscape:pageshadow="2"
     inkscape:window-width="2560"
     inkscape:window-height="1605"
     id="namedview3723"
     showgrid="false"
     fit-margin-top="0"
     fit-margin-left="0"
     fit-margin-right="0"
     fit-margin-bottom="0"
     inkscape:zoom="2.1360282"
     inkscape:cx="249.40099"
     inkscape:cy="35.851501"
     inkscape:window-x="0"
     inkscape:window-y="73"
     inkscape:window-maximized="1"
     inkscape:current-layer="g3729" /><g
     id="g3729"
     inkscape:groupmode="layer"
     inkscape:label="Logos For Use"
     transform="matrix(1.25,0,0,-1.25,-63.09901,367.04638)"><g
       id="g3731"><g
         id="g3733"
         clip-path="url(#clipPath3735)"><g
           id="g3739"
           transform="translate(94.1866,271.0923)"><path
             d="m 0,0 c 15.327,-0.005 14.317,-17.556 14.066,-32.793 -0.148,-8.963 -2.064,-15.967 -10.482,-15.965 -8.356,0.003 -8.13,6.278 -8.253,6.278 -2.465,-3.657 -5.028,-6.274 -10.023,-6.272 -4.81,0.001 -7.292,2.316 -10.535,6.278 -0.005,-0.314 -0.104,-6.275 -8.46,-6.273 -8.41,0.003 -10.16,3.537 -10.012,12.499 0.251,15.175 -0.964,36.261 16.531,36.256 5.292,-0.001 11.281,-4.694 13.062,-6.341 C -12.279,-4.687 -7.453,0.002 0,0"
             style="fill:#000000;fill-opacity:1;fill-rule:nonzero;stroke:none"
             id="path3741"
             inkscape:connector-curvature="0" /></g><g
           id="g3743"
           transform="translate(126.3383,293.6361)"><path
             d="m 0,0 c 4.519,-0.001 11.198,-3.281 11.07,-10.993 -0.081,-4.923 -3.93,-8.875 -11.635,-8.873 l -1.747,0 c -10.394,0.004 -11.259,4.213 -11.167,9.758 0.113,6.835 6.348,10.11 11.258,10.109 L 0,0 z"
             style="fill:#000000;fill-opacity:1;fill-rule:nonzero;stroke:none"
             id="path3745"
             inkscape:connector-curvature="0" /></g><g
           id="g3747"
           transform="translate(125.9278,271.0829)"><path
             d="M 0,0 C 6.25,-0.002 11.393,-4.935 11.096,-22.922 10.748,-44.007 10.432,-48.76 -1.594,-48.756 l -1.08,0 c -12.684,0.004 -12.325,6.892 -11.967,24.871 0.348,17.855 4.178,23.888 12.351,23.886 L 0,0 z"
             style="fill:#000000;fill-opacity:1;fill-rule:nonzero;stroke:none"
             id="path3749"
             inkscape:connector-curvature="0" /></g><g
           id="g3751"
           transform="translate(159.5989,271.9893)"><path
             d="m 0,0 c 7.514,-0.002 14.69,-2.381 14.549,-10.916 -0.121,-7.316 -4.639,-7.734 -4.938,-7.734 6.047,-5.368 6.572,-9.756 6.482,-15.239 -0.235,-14.205 -11.275,-16.702 -18.429,-16.7 -10.463,0.003 -17.039,2.079 -16.908,10 0.117,7.13 4.944,8.107 5.428,8.231 -5.799,5.485 -6.327,10.176 -6.237,15.666 C -19.822,-2.736 -7.269,0.002 0,0"
             style="fill:#000000;fill-opacity:1;fill-rule:nonzero;stroke:none"
             id="path3753"
             inkscape:connector-curvature="0" /></g><g
           id="g3755"
           transform="translate(199.1376,271.0612)"><path
             d="M 0,0 C 7.813,-0.002 11.65,-4.205 11.536,-11.094 11.421,-18.045 6.4,-20.171 6.397,-20.357 6.688,-24.505 6.901,-26.454 6.842,-30.05 6.657,-41.264 5.989,-48.759 -5.554,-48.755 l -1.861,0 c -11.42,0.004 -11.655,7.623 -11.472,18.713 0.056,3.355 0.349,6.71 0.702,9.995 0.003,0.186 -4.892,2.013 -4.778,8.964 0.114,6.888 4.205,11.089 11.903,11.086 L 0,0 z"
             style="fill:#000000;fill-opacity:1;fill-rule:nonzero;stroke:none"
             id="path3757"
             inkscape:connector-curvature="0" /></g><g
           id="g3759"
           transform="translate(231.8342,271.0653)"><path
             d="m 0,0 c 1.242,0 2.507,-0.015 3.786,-0.015 7.759,-0.002 11.021,-2.38 10.907,-9.268 -0.114,-6.943 -4.44,-6.826 -4.442,-6.942 3.291,-1.104 5.776,-3.66 5.701,-8.234 -0.116,-7.005 -4.632,-7.307 -4.634,-7.431 -0.126,-0.186 5.414,0.425 5.274,-8.047 -0.143,-8.697 -6.869,-8.962 -14.161,-8.96 -0.477,0 -0.956,0.002 -1.436,0.002 -11.658,0.003 -20.914,3.485 -20.634,20.486 0.115,0 0.149,8.684 0.151,9.141 C -19.138,-0.969 -10.425,0.003 0,0"
             style="fill:#000000;fill-opacity:1;fill-rule:nonzero;stroke:none"
             id="path3761"
             inkscape:connector-curvature="0" /></g><g
           id="g3763"
           transform="translate(264.5961,271.0418)"><path
             d="m 0,0 c 10.877,-0.003 22.602,-3.781 22.348,-19.205 -0.092,-5.545 -1.775,-9.14 -6.355,-13.286 0.418,-0.179 7.136,-1.097 7.024,-7.862 -0.093,-5.669 -3.562,-8.41 -9.093,-8.408 -4.994,0.002 -8.681,2.138 -11.953,4.392 -1.071,-3.169 -2.6,-4.388 -8.183,-4.386 -4.634,0.001 -7.909,1.649 -7.76,10.665 l 0.414,25.054 C -13.448,-6.333 -10.938,0.003 0,0"
             style="fill:#000000;fill-opacity:1;fill-rule:nonzero;stroke:none"
             id="path3765"
             inkscape:connector-curvature="0" /></g><g
           id="g3767"
           transform="translate(323.2911,271.0244)"><path
             d="M 0,0 C 8.839,-0.003 21.369,-5.614 21.059,-24.447 20.768,-42.061 11.037,-48.76 -0.2,-48.757 l -9.658,0.003 c -7.637,0.002 -8.729,4.391 -8.546,15.481 l 0.227,13.715 c 0.215,13.047 0.384,19.563 10.418,19.56 L 0,0 z"
             style="fill:#000000;fill-opacity:1;fill-rule:nonzero;stroke:none"
             id="path3769"
             inkscape:connector-curvature="0" /></g><g
           id="g3771"
           transform="translate(361.9152,293.5663)"><path
             d="m 0,0 c 4.519,-0.001 11.198,-3.281 11.07,-10.993 -0.081,-4.923 -3.93,-8.875 -11.635,-8.873 l -1.747,0 c -10.394,0.004 -11.259,4.213 -11.167,9.758 0.113,6.835 6.348,10.11 11.258,10.109 L 0,0 z"
             style="fill:#000000;fill-opacity:1;fill-rule:nonzero;stroke:none"
             id="path3773"
             inkscape:connector-curvature="0" /></g><g
           id="g3775"
           transform="translate(361.4969,271.0131)"><path
             d="M 0,0 C 6.258,-0.002 11.4,-4.935 11.103,-22.922 10.755,-44.007 10.439,-48.76 -1.586,-48.756 l -1.08,0 c -12.684,0.004 -12.325,6.892 -11.975,24.871 0.356,17.855 4.186,23.888 12.358,23.886 L 0,0 z"
             style="fill:#000000;fill-opacity:1;fill-rule:nonzero;stroke:none"
             id="path3777"
             inkscape:connector-curvature="0" /></g><g
           id="g3779"
           transform="translate(389.6534,271.0047)"><path
             d="m 0,0 c 11.543,-0.003 22.646,-4.395 22.403,-19.081 -0.085,-5.18 -0.644,-17.248 -16.241,-19.193 l -0.057,-3.479 c -0.059,-3.596 -3.547,-7.005 -10.035,-7.003 -4.994,0.002 -10.21,0.493 -10.04,10.791 l 0.412,24.929 C -13.448,-6.333 -10.945,0.003 0,0"
             style="fill:#000000;fill-opacity:1;fill-rule:nonzero;stroke:none"
             id="path3781"
             inkscape:connector-curvature="0" /></g><g
           id="g3783"
           transform="translate(434.3849,271.9078)"><path
             d="m 0,0 c 7.514,-0.002 15.784,-2.451 14.549,-10.916 -0.811,-5.572 -5.464,-5.957 -6.934,-5.957 -0.236,0 -0.39,0.01 -0.433,0.01 6.047,-5.368 9.001,-11.543 8.911,-17.026 -0.235,-14.205 -11.275,-16.702 -18.429,-16.7 -10.456,0.003 -20.314,1.831 -20.183,9.753 0.118,7.129 8.219,8.354 8.703,8.478 -5.8,5.485 -6.327,10.176 -6.237,15.666 C -19.822,-2.736 -7.269,0.002 0,0"
             style="fill:#000000;fill-opacity:1;fill-rule:nonzero;stroke:none"
             id="path3785"
             inkscape:connector-curvature="0" /></g></g></g></g></svg>