<?xml version="1.0" encoding="UTF-8" standalone="no"?>
<!-- Created with Inkscape (http://www.inkscape.org/) -->

<svg
   xmlns:dc="http://purl.org/dc/elements/1.1/"
   xmlns:cc="http://creativecommons.org/ns#"
   xmlns:rdf="http://www.w3.org/1999/02/22-rdf-syntax-ns#"
   xmlns:svg="http://www.w3.org/2000/svg"
   xmlns="http://www.w3.org/2000/svg"
   xmlns:sodipodi="http://sodipodi.sourceforge.net/DTD/sodipodi-0.dtd"
   xmlns:inkscape="http://www.inkscape.org/namespaces/inkscape"
   id="svg4919"
   version="1.1"
   inkscape:version="0.48.4 r9939"
   width="250"
   height="250"
   xml:space="preserve"
   sodipodi:docname="Logos For Use.ai"><metadata
     id="metadata4925"><rdf:RDF><cc:Work
         rdf:about=""><dc:format>image/svg+xml</dc:format><dc:type
           rdf:resource="http://purl.org/dc/dcmitype/StillImage" /><dc:title></dc:title></cc:Work></rdf:RDF></metadata><defs
     id="defs4923" /><sodipodi:namedview
     pagecolor="#ffffff"
     bordercolor="#666666"
     borderopacity="1"
     objecttolerance="10"
     gridtolerance="10"
     guidetolerance="10"
     inkscape:pageopacity="0"
     inkscape:pageshadow="2"
     inkscape:window-width="705"
     inkscape:window-height="481"
     id="namedview4921"
     showgrid="false"
     fit-margin-top="0"
     fit-margin-left="0"
     fit-margin-right="0"
     fit-margin-bottom="0"
     inkscape:zoom="0.3776"
     inkscape:cx="125"
     inkscape:cy="125"
     inkscape:window-x="0"
     inkscape:window-y="73"
     inkscape:window-maximized="0"
     inkscape:current-layer="g4927" /><g
     id="g4927"
     inkscape:groupmode="layer"
     inkscape:label="Logos For Use"
     transform="matrix(1.25,0,0,-1.25,-187.5,437.5)"><g
       id="g4929"
       transform="translate(350,321.181)"><path
         d="m 0,0 0,28.819 -41.231,0 -68.785,-57.059 -89.984,0 0,-28.82 200,0 0,28.82 -64.29,0 L -30.171,0 0,0 z m -200,-114.118 200,0 0,28.82 -200,0 0,-28.82 z m 0,-57.063 200,0 0,28.819 -200,0 0,-28.819 z m 117.172,200 -117.172,0 0,-28.819 82.433,0 34.739,28.819 z"
         style="fill:#231f20;fill-opacity:1;fill-rule:nonzero;stroke:none"
         id="path4931"
         inkscape:connector-curvature="0" /></g></g></svg>