<?xml version="1.0" encoding="UTF-8" standalone="no"?>
<svg
   xmlns:dc="http://purl.org/dc/elements/1.1/"
   xmlns:cc="http://creativecommons.org/ns#"
   xmlns:rdf="http://www.w3.org/1999/02/22-rdf-syntax-ns#"
   xmlns:svg="http://www.w3.org/2000/svg"
   xmlns="http://www.w3.org/2000/svg"
   viewBox="0 0 796.88 154.45332"
   height="154.45332"
   width="796.88"
   xml:space="preserve"
   id="svg2"
   version="1.1"><metadata
     id="metadata8"><rdf:RDF><cc:Work
         rdf:about=""><dc:format>image/svg+xml</dc:format><dc:type
           rdf:resource="http://purl.org/dc/dcmitype/StillImage" /></cc:Work></rdf:RDF></metadata><defs
     id="defs6"><clipPath
       id="clipPath20"
       clipPathUnits="userSpaceOnUse"><path
         id="path18"
         d="M 0,0 H 5976.65 V 1158 H 0 Z" /></clipPath></defs><g
     transform="matrix(1.3333333,0,0,-1.3333333,0,154.45333)"
     id="g10"><g
       transform="scale(0.1)"
       id="g12"><g
         id="g14"><g
           clip-path="url(#clipPath20)"
           id="g16"><path
             id="path22"
             style="fill:#231f20;fill-opacity:1;fill-rule:nonzero;stroke:none"
             d="m 274.992,621.129 c 0,-41.063 4.649,-48.027 85.207,-48.027 v -26.34 c -23.238,3.097 -49.574,4.648 -128.586,4.648 -79.011,0 -105.347,-1.551 -128.59,-4.648 v 26.34 c 82.114,0 86.762,6.964 86.762,48.027 v 490.661 h -52.676 c -75.9137,0 -101.4762,-10.08 -106.8981,-92.96 H 0 l 7.74609,133.24 c 40.28121,-3.11 85.98051,-4.65 225.41791,-4.65 137.879,0 183.582,1.54 223.863,4.65 l 7.746,-133.24 h -30.207 c -5.425,82.88 -30.988,92.96 -106.898,92.96 H 274.992 V 621.129" /><path
             id="path24"
             style="fill:#231f20;fill-opacity:1;fill-rule:nonzero;stroke:none"
             d="m 817.984,791.539 c 0,65.07 -35.629,86.758 -73.589,86.758 -43.375,0 -79.008,-33.309 -108.446,-58.867 V 607.184 c 0,-32.532 5.426,-40.282 55,-40.282 v -20.14 c -15.496,1.547 -46.476,4.648 -90.633,4.648 -44.152,0 -75.136,-3.101 -96.828,-4.648 v 20.14 c 57.324,0 64.297,7.75 64.297,40.282 v 466.156 c 0,32.53 -6.973,40.28 -62.746,40.28 v 20.14 c 44.926,2.32 90.629,9.29 134.785,20.14 l -3.875,-305.81 45.703,40.277 c 17.817,15.496 85.211,28.664 96.055,28.664 95.277,0 108.445,-63.519 108.445,-135.562 V 607.184 c 0,-32.532 6.973,-40.282 58.094,-40.282 v -20.14 c -17.039,1.547 -48.023,4.648 -92.176,4.648 -44.152,0 -75.14,-3.101 -95.277,-4.648 v 20.14 c 55.773,0 61.191,7.75 61.191,40.282 v 184.355" /><path
             id="path26"
             style="fill:#231f20;fill-opacity:1;fill-rule:nonzero;stroke:none"
             d="m 1233.13,788.441 c -3.1,55.774 -21.69,103.801 -84.44,103.801 -62.74,0 -102.25,-51.125 -106.9,-103.801 z m -191.34,-24.785 c -1.55,-90.629 39.51,-175.066 144.08,-175.066 42.61,0 89.86,31.762 116.97,65.07 l 14.72,-10.07 c -40.28,-58.875 -99.93,-103.028 -174.29,-103.028 -109.22,0 -164.993,80.567 -164.993,183.59 0,103.793 78.233,192.879 182.813,192.879 92.95,0 147.95,-59.644 149.5,-153.375 h -268.8" /><path
             id="path28"
             style="fill:#231f20;fill-opacity:1;fill-rule:nonzero;stroke:none"
             d="m 2435.65,1024.32 c 0,-24.797 -19.36,-44.933 -44.93,-44.933 -25.56,0 -44.92,20.136 -44.92,44.933 0,24.79 19.36,44.92 44.92,44.92 25.57,0 44.93,-20.13 44.93,-44.92 z m -78.24,-194.824 c 0,44.926 -8.51,51.899 -66.61,51.899 v 20.144 c 45.7,3.871 91.4,7.746 136.33,15.492 -0.77,-102.25 -1.55,-210.695 -1.55,-284.289 0,-55 6.2,-62.738 60.42,-65.84 v -20.14 c -24.01,3.097 -55,4.648 -98.38,4.648 -43.37,0 -74.36,-1.551 -98.37,-4.648 v 20.14 c 61.97,3.102 68.16,10.84 68.16,65.84 v 196.754" /><path
             id="path30"
             style="fill:#231f20;fill-opacity:1;fill-rule:nonzero;stroke:none"
             d="m 2590.56,1066.37 c 0,44.93 -8.52,51.9 -66.62,51.9 v 20.13 c 45.71,3.88 91.41,7.75 136.34,15.5 -1.55,-113.1 -1.55,-295.74 -1.55,-521.158 0,-55 6.19,-62.738 60.42,-65.84 v -20.14 c -24.01,3.097 -55,4.648 -98.38,4.648 -43.38,0 -74.36,-1.551 -98.38,-4.648 v 20.14 c 61.97,3.102 68.17,10.84 68.17,65.84 v 433.628" /><path
             id="path32"
             style="fill:#231f20;fill-opacity:1;fill-rule:nonzero;stroke:none"
             d="m 2819.83,1066.37 c 0,44.93 -8.52,51.9 -66.62,51.9 v 20.13 c 45.71,3.88 91.41,7.75 136.34,15.5 C 2888,1040.8 2888,858.16 2888,632.742 c 0,-55 6.2,-62.738 60.42,-65.84 v -20.14 c -24.01,3.097 -55,4.648 -98.37,4.648 -43.39,0 -74.37,-1.551 -98.38,-4.648 v 20.14 c 61.97,3.102 68.16,10.84 68.16,65.84 v 433.628" /><path
             id="path34"
             style="fill:#231f20;fill-opacity:1;fill-rule:nonzero;stroke:none"
             d="m 3138.19,1024.32 c 0,-24.797 -19.37,-44.933 -44.93,-44.933 -25.56,0 -44.93,20.136 -44.93,44.933 0,24.79 19.37,44.92 44.93,44.92 25.56,0 44.93,-20.13 44.93,-44.92 z m -78.24,-194.824 c 0,44.926 -8.52,51.899 -66.62,51.899 v 20.144 c 45.71,3.871 91.41,7.746 136.34,15.492 -0.78,-102.25 -1.55,-210.695 -1.55,-284.289 0,-55 6.19,-62.738 60.42,-65.84 v -20.14 c -24.02,3.097 -55,4.648 -98.38,4.648 -43.38,0 -74.36,-1.551 -98.38,-4.648 v 20.14 c 61.98,3.102 68.17,10.84 68.17,65.84 v 196.754" /><path
             id="path36"
             style="fill:#231f20;fill-opacity:1;fill-rule:nonzero;stroke:none"
             d="m 3479.78,751.262 c -70.49,-9.297 -161.89,-46.477 -161.89,-105.352 0,-32.527 16.26,-57.32 61.96,-57.32 35.64,0 68.17,14.719 99.93,35.637 z m 139.43,-168.871 c -14.72,-13.938 -67.39,-41.829 -82.88,-41.829 -21.69,0 -38.73,32.54 -54.23,65.071 l -73.59,-54.223 c -20.14,-6.199 -51.12,-10.848 -64.29,-10.848 -56.55,0 -103.8,24.793 -103.8,83.665 0,94.503 158.8,131.683 239.36,148.726 v 36.406 c 0,48.801 -30.21,82.883 -75.14,82.883 -54.22,0 -82.88,-42.605 -88.3,-92.953 -7.75,2.324 -19.37,2.324 -28.67,2.324 -9.29,0 -20.91,0 -28.66,-2.324 l 6.2,66.617 c 35.63,33.309 100.7,51.125 141.76,51.125 76.68,0 140.97,-37.961 140.97,-120.843 V 636.613 c 0,-27.883 6.98,-48.023 17.82,-48.023 13.95,0 30.22,6.972 46.48,13.945 l 6.97,-20.144" /><path
             id="path38"
             style="fill:#231f20;fill-opacity:1;fill-rule:nonzero;stroke:none"
             d="m 4272.98,607.184 c 0,-32.532 5.42,-40.282 53.45,-40.282 v -20.14 c -17.05,1.547 -44.93,4.648 -89.09,4.648 -44.15,0 -75.14,-3.101 -92.18,-4.648 v 20.14 c 52.68,0 59.65,7.75 59.65,40.282 V 793.09 c 0,69.719 -26.34,85.207 -70.49,85.207 -34.86,0 -78.24,-26.336 -108.45,-41.828 V 607.184 c 0,-32.532 6.97,-40.282 59.65,-40.282 v -20.14 c -18.59,1.547 -49.58,4.648 -93.73,4.648 -44.16,0 -75.14,-3.101 -95.28,-4.648 v 20.14 c 55.77,0 62.75,7.75 62.75,40.282 V 793.09 c 0,63.519 -22.47,85.207 -68.17,85.207 -37.18,0 -80.56,-26.336 -110.77,-41.828 V 607.184 c 0,-32.532 6.97,-40.282 59.64,-40.282 v -20.14 c -20.14,1.547 -49.57,4.648 -93.73,4.648 -44.15,0 -75.14,-3.101 -94.5,-4.648 v 20.14 c 55,0 60.42,7.75 60.42,40.282 v 232.382 c 0,32.539 -5.42,40.278 -60.42,40.278 v 20.144 c 41.05,3.875 83.66,7.746 123.16,17.043 l 4.65,-61.195 52.68,42.602 c 17.81,13.949 51.12,18.593 93.73,18.593 42.6,0 79.78,-23.238 95.27,-64.293 l 58.1,45.7 c 17.04,13.949 54.23,18.593 86.76,18.593 64.29,0 106.9,-46.476 106.9,-114.644 V 607.184" /><path
             id="path40"
             style="fill:#231f20;fill-opacity:1;fill-rule:nonzero;stroke:none"
             d="m 4721.25,1130.84 c -42.6,-5.43 -60.42,-13.17 -60.42,-34.09 0,-17.04 50.21,-127.043 171.05,-466.332 h 1.55 c 128.59,340.062 179.9,447.452 179.9,473.792 0,14.72 -15.49,24.79 -54.22,27.89 v 26.33 c 13.94,-3.1 29.43,-4.65 76.68,-4.65 47.26,0 62.75,1.55 76.69,4.65 v -26.33 c -39.5,-5.43 -44.92,-8.53 -59.64,-46.48 l -203.15,-490.058 17.82,-48.8 c -7.74,3.097 -17.04,4.648 -44.92,4.648 -27.89,0 -37.19,-1.551 -44.94,-4.648 l -195.06,515.128 c -20.14,58.1 -37.18,65.85 -72.04,68.95 v 26.33 c 19.37,-3.1 40.28,-4.65 105.35,-4.65 65.07,0 85.99,1.55 105.35,4.65 v -26.33" /><path
             id="path42"
             style="fill:#231f20;fill-opacity:1;fill-rule:nonzero;stroke:none"
             d="m 5265.54,751.262 c -70.49,-9.297 -161.9,-46.477 -161.9,-105.352 0,-32.527 16.27,-57.32 61.97,-57.32 35.64,0 68.17,14.719 99.93,35.637 z m 139.43,-168.871 c -14.72,-13.938 -67.39,-41.829 -82.88,-41.829 -21.69,0 -38.73,32.54 -54.23,65.071 l -73.59,-54.223 c -20.14,-6.199 -51.12,-10.848 -64.29,-10.848 -56.55,0 -103.8,24.793 -103.8,83.665 0,94.503 158.8,131.683 239.36,148.726 v 36.406 c 0,48.801 -30.21,82.883 -75.14,82.883 -54.22,0 -82.88,-42.605 -88.3,-92.953 -7.75,2.324 -19.37,2.324 -28.67,2.324 -9.29,0 -20.91,0 -28.66,-2.324 l 6.2,66.617 c 35.63,33.309 100.7,51.125 141.75,51.125 76.69,0 140.98,-37.961 140.98,-120.843 V 636.613 c 0,-27.883 6.98,-48.023 17.82,-48.023 13.95,0 30.21,6.972 46.48,13.945 l 6.97,-20.144" /><path
             id="path44"
             style="fill:#231f20;fill-opacity:1;fill-rule:nonzero;stroke:none"
             d="m 5486.95,1066.37 c 0,44.93 -8.52,51.9 -66.62,51.9 v 20.13 c 45.7,3.88 91.41,7.75 136.33,15.5 -1.55,-113.1 -1.55,-295.74 -1.55,-521.158 0,-55 6.2,-62.738 60.43,-65.84 v -20.14 c -24.02,3.097 -55,4.648 -98.38,4.648 -43.38,0 -74.37,-1.551 -98.38,-4.648 v 20.14 c 61.97,3.102 68.17,10.84 68.17,65.84 v 433.628" /><path
             id="path46"
             style="fill:#231f20;fill-opacity:1;fill-rule:nonzero;stroke:none"
             d="m 5892.21,788.441 c -3.09,55.774 -21.69,103.801 -84.43,103.801 -62.74,0 -102.25,-51.125 -106.9,-103.801 z m -191.33,-24.785 c -1.55,-90.629 39.51,-175.066 144.08,-175.066 42.61,0 89.86,31.762 116.97,65.07 l 14.72,-10.07 c -40.28,-58.875 -99.93,-103.028 -174.29,-103.028 -109.22,0 -165,80.567 -165,183.59 0,103.793 78.24,192.879 182.82,192.879 92.95,0 147.95,-59.644 149.49,-153.375 h -268.79" /><path
             id="path48"
             style="fill:#231f20;fill-opacity:1;fill-rule:nonzero;stroke:none"
             d="m 2233.53,1152.04 c -46.48,0 -61.2,1.55 -75.14,4.64 v -26.33 c 42.6,-3.1 54.23,-10.07 54.23,-25.57 0,-23.23 -31.13,-133.522 -118.66,-446.471 h -1.55 c -126.44,349.241 -143.56,453.551 -143.34,484.561 -28.43,-12.94 -73.19,-13.67 -94.32,-13.16 1.72,-10.74 4.15,-21.69 7.07,-32.53 5.83,-23.94 14.95,-56.41 29.19,-100.246 l -96.06,-346.375 h -1.55 C 1681.85,998.363 1645.89,1090.84 1645.89,1104 c 0,13.17 13.94,24.02 58.87,26.34 v 26.33 c -18.6,-3.1 -39.51,-4.65 -102.25,-4.65 -62.75,0 -83.66,1.55 -102.25,4.65 v -26.33 c 29.43,-1.55 51.12,-13.17 58.09,-34.86 l 187.03,-548.718 c 7.74,3.097 15.49,4.648 41.05,4.648 25.56,0 33.31,-1.551 41.06,-4.648 l -13.17,45.703 96.9,350.344 h 1.55 L 2049.8,546.762 c 7.75,3.097 15.49,4.648 41.06,4.648 25.56,0 33.31,-1.551 41.05,-4.648 l -20.14,58.097 137.25,484.441 c 6.97,24 9.3,31.75 59.65,41.05 v 26.33 c -13.94,-3.09 -28.66,-4.64 -75.14,-4.64" /><path
             id="path50"
             style="fill:#231f20;fill-opacity:1;fill-rule:nonzero;stroke:none"
             d="m 1847.76,31.5117 c 25.34,0 37.4,14.8399 37.4,35.8477 0,21.0117 -12.98,35.8516 -38.94,35.8516 h -45.74 V 31.5117 Z m -5.25,99.5003 c 19.47,0 28.74,10.816 28.74,26.578 0,15.758 -8.96,26.574 -29.36,26.574 h -41.41 v -53.152 z m -74.78,81.886 h 76.32 c 39.25,0 59.33,-23.796 59.33,-52.839 0,-20.09 -10.2,-34.297 -28.42,-40.477 28.11,-6.48 42.95,-26.5703 42.95,-53.4531 0,-36.1601 -24.11,-63.34765 -68.3,-63.34765 h -81.88 V 212.898" /><path
             id="path52"
             style="fill:#231f20;fill-opacity:1;fill-rule:nonzero;stroke:none"
             d="m 2130.74,84.9688 c 41.71,0 58.4,18.2422 58.4,49.4412 0,31.52 -17.31,49.754 -58.4,49.754 h -18.55 V 84.9688 Z m 94.24,-82.18755 h -37.69 l -37.71,55.30855 c -5.86,-0.621 -11.73,-1.2304 -17.61,-1.2304 h -19.78 V 2.78125 h -32.75 V 212.898 h 52.53 c 58.1,0 90.54,-30.285 90.54,-78.488 0,-32.441 -14.53,-54.6912 -42.02,-66.7381 l 44.49,-64.89065" /><path
             id="path54"
             style="fill:#231f20;fill-opacity:1;fill-rule:nonzero;stroke:none"
             d="m 2563.58,107.84 c 0,44.808 -30.91,78.484 -74.79,78.484 -43.87,0 -75.09,-33.676 -75.09,-78.484 0,-44.8009 31.22,-78.4884 75.09,-78.4884 43.88,0 74.79,33.6875 74.79,78.4884 z m -183.25,0 c 0,62.726 48.21,107.84 108.46,107.84 59.95,0 108.15,-45.114 108.15,-107.84 C 2596.94,45.1094 2548.74,0 2488.79,0 2428.54,0 2380.33,45.1094 2380.33,107.84" /><path
             id="path56"
             style="fill:#231f20;fill-opacity:1;fill-rule:nonzero;stroke:none"
             d="m 2935.22,107.84 c 0,44.808 -30.91,78.484 -74.79,78.484 -43.87,0 -75.08,-33.676 -75.08,-78.484 0,-44.8009 31.21,-78.4884 75.08,-78.4884 43.88,0 74.79,33.6875 74.79,78.4884 z m -183.25,0 c 0,62.726 48.21,107.84 108.46,107.84 59.95,0 108.16,-45.114 108.16,-107.84 C 2968.59,45.1094 2920.38,0 2860.43,0 2800.18,0 2751.97,45.1094 2751.97,107.84" /><path
             id="path58"
             style="fill:#231f20;fill-opacity:1;fill-rule:nonzero;stroke:none"
             d="m 3179.54,123.91 67.98,88.988 h 37.08 l -74.47,-98.257 82.81,-111.85975 h -39.55 L 3188.5,90.5312 3165.94,63.0391 V 2.78125 h -32.75 V 212.898 h 32.75 v -86.519 c 0,-9.578 -1.23,-22.25 -2.47,-30.8985 4.64,9.5785 10.82,21.3205 16.07,28.4295" /><path
             id="path60"
             style="fill:#231f20;fill-opacity:1;fill-rule:nonzero;stroke:none"
             d="m 3450.46,212.898 h 32.75 V 31.5117 h 97.03 V 2.78125 H 3450.46 V 212.898" /><path
             id="path62"
             style="fill:#231f20;fill-opacity:1;fill-rule:nonzero;stroke:none"
             d="m 3774.54,69.2109 -79.73,143.6871 h 36.16 l 47.59,-86.519 c 6.49,-11.738 12.67,-30.2774 12.67,-30.2774 0,0 6.48,18.5394 12.66,30.2774 l 46.04,86.519 h 33.69 L 3807.29,71.0703 V 2.78125 h -32.75 V 69.2109" /><path
             id="path64"
             style="fill:#231f20;fill-opacity:1;fill-rule:nonzero;stroke:none"
             d="m 4089.03,125.449 c -8.35,8.961 -19.78,23.492 -19.78,23.492 0,0 2.16,-17.312 2.16,-30.281 V 2.78125 h -30.28 V 215.066 h 4.33 L 4161.34,90.5312 c 8.02,-8.6523 19.46,-23.4804 19.46,-23.4804 0,0 -2.16,18.539 -2.16,30.2812 v 115.566 h 30.28 V 0.621094 h -4.01 L 4089.03,125.449" /></g></g></g></g></svg>